<svg baseProfile="tiny" xmlns="http://www.w3.org/2000/svg" width="20" height="20" viewBox="0 0 20 20"><path fill="#C7C7C7" d="M19.379 16.388l-3.545-3.545-.642-.642-.083-.068c.69-1.19 1.092-2.57 1.092-4.045.001-4.467-3.62-8.088-8.088-8.088-4.467 0-8.088 3.621-8.088 8.088 0 4.468 3.621 8.088 8.088 8.088 1.45 0 2.808-.387 3.984-1.055l.078.096.643.642 3.545 3.545c.794.794 2.081.794 2.875 0l.142-.142c.793-.793.793-2.08-.001-2.874zm-11.265-2.093c-3.428 0-6.208-2.778-6.208-6.207 0-3.428 2.779-6.207 6.208-6.207 3.427 0 6.206 2.778 6.206 6.207s-2.778 6.207-6.206 6.207z"/></svg>